C:\Users\r0593348\3dpredictsim\Results\Batchsim_tmt_linear\Pog_s1_tmt_aCst_d05_k1000_ig24_pas_GRF.mot
nRows=22
nColumns=19

name C:\Users\r0593348\3dpredictsim\Results\Batchsim_tmt_linear\Pog_s1_tmt_aCst_d05_k1000_ig24_pas_GRF.mot
datacolumns 19
datarows 22
range 0.0000000000 0.2321521064
endheader
time 	ground_force_vx	ground_force_vy	ground_force_vz	ground_force_px	ground_force_py	ground_force_pz	1_ground_force_vx	1_ground_force_vy	1_ground_force_vz	1_ground_force_px	1_ground_force_py	1_ground_force_pz	ground_torque_x	ground_torque_y	ground_torque_z	1_ground_torque_x	1_ground_torque_y	1_ground_torque_z
        0.0000000000	      -91.9196060253	       84.4490136384	       37.7761339850	        0.1752660325	        0.0000000000	        0.0383320353	       96.0529190778	      511.8310110620	       -3.9757773593	       -0.3134348226	        0.0000000000	       -0.0372922784	        0.0000000000	        0.0000000000	        0.0000000000	        0.0000000000	        0.0000000000	        0.0000000000	
        0.0110548622	      -83.2020616314	      179.6839544362	       75.6317915095	        0.1814306735	        0.0000000000	        0.0366904933	       79.6348968507	      432.3814567378	       -8.4408585551	       -0.3100674831	        0.0000000000	       -0.0364491457	        0.0000000000	        0.0000000000	        0.0000000000	        0.0000000000	        0.0000000000	        0.0000000000	
        0.0221097244	      -37.3581328656	      322.0093763042	       16.1238472497	        0.1849824996	        0.0000000000	        0.0346887116	       63.5199122740	      348.7185813124	       -7.0765412566	       -0.3050843557	        0.0000000000	       -0.0347787689	        0.0000000000	        0.0000000000	        0.0000000000	        0.0000000000	        0.0000000000	        0.0000000000	
        0.0331645866	      -38.6556967047	      455.5995615853	       -0.3297535492	        0.1883120241	        0.0000000000	        0.0350034327	       42.2335906428	      259.0983766705	       -4.5357536435	       -0.2970546475	        0.0000000000	       -0.0316200286	        0.0000000000	        0.0000000000	        0.0000000000	        0.0000000000	        0.0000000000	        0.0000000000	
        0.0442194488	      -72.1984052939	      611.8761810389	       -5.5434457665	        0.1959412717	        0.0000000000	        0.0373881612	       18.7896175391	      170.0760022225	       -8.6126939399	       -0.2826836105	        0.0000000000	       -0.0253012211	        0.0000000000	        0.0000000000	        0.0000000000	        0.0000000000	        0.0000000000	        0.0000000000	
        0.0552743111	      -96.8421235959	      735.8782341857	       -9.6252866654	        0.2022870815	        0.0000000000	        0.0392969641	        3.5999975303	      132.2262872254	      -13.0659259245	       -0.2760352645	        0.0000000000	       -0.0219361397	        0.0000000000	        0.0000000000	        0.0000000000	        0.0000000000	        0.0000000000	        0.0000000000	
        0.0663291733	     -104.8833295359	      794.9709397409	      -11.6744251918	        0.2067463278	        0.0000000000	        0.0405118923	        1.5022667946	      101.3503136732	      -13.5923539146	       -0.2754928081	        0.0000000000	       -0.0220173512	        0.0000000000	        0.0000000000	        0.0000000000	        0.0000000000	        0.0000000000	        0.0000000000	
        0.0773840355	     -102.1777824022	      805.3704780456	      -12.2479244463	        0.2100736951	        0.0000000000	        0.0412810596	       -2.5698742698	       65.3880845790	      -12.1505880825	       -0.2750170698	        0.0000000000	       -0.0220372496	        0.0000000000	        0.0000000000	        0.0000000000	        0.0000000000	        0.0000000000	        0.0000000000	
        0.0884388977	      -95.2553830955	      794.6442354023	      -12.4010072919	        0.2130056056	        0.0000000000	        0.0417497887	       -8.1253234770	       26.6414277347	       -5.8996890128	       -0.2753446518	        0.0000000000	       -0.0216759101	        0.0000000000	        0.0000000000	        0.0000000000	        0.0000000000	        0.0000000000	        0.0000000000	
        0.0994937599	      -86.1111296881	      780.3889631957	      -13.2870663198	        0.2161594197	        0.0000000000	        0.0419906586	        0.0867889923	       -0.0849263031	        0.0020133876	        0.0000000000	        0.0000000000	        0.0000000000	        0.0000000000	        0.0000000000	        0.0000000000	        0.0000000000	        0.0000000000	        0.0000000000	
        0.1105486221	      -74.7731347920	      758.0766019803	      -14.2091901710	        0.2194618072	        0.0000000000	        0.0421200144	        0.0001811613	       -0.0001450261	       -0.0000096362	        0.0000000000	        0.0000000000	        0.0000000000	        0.0000000000	        0.0000000000	        0.0000000000	        0.0000000000	        0.0000000000	        0.0000000000	
        0.1216034843	      -64.8803589459	      732.6841884700	      -14.6752221119	        0.2234481978	        0.0000000000	        0.0421593243	        0.0000815786	       -0.0000566457	       -0.0000058099	        0.0000000000	        0.0000000000	        0.0000000000	        0.0000000000	        0.0000000000	        0.0000000000	        0.0000000000	        0.0000000000	        0.0000000000	
        0.1326583465	      -56.2784204377	      707.6801795604	      -15.1632642255	        0.2280225126	        0.0000000000	        0.0420941449	        0.0008650894	       -0.0005382333	       -0.0000687853	        0.0000000000	        0.0000000000	        0.0000000000	        0.0000000000	        0.0000000000	        0.0000000000	        0.0000000000	        0.0000000000	        0.0000000000	
        0.1437132087	      -47.6191336780	      681.3687533559	      -15.7594160392	        0.2326333934	        0.0000000000	        0.0420470493	        0.0026832292	       -0.0015294569	       -0.0002263672	        0.0000000000	        0.0000000000	        0.0000000000	        0.0000000000	        0.0000000000	        0.0000000000	        0.0000000000	        0.0000000000	        0.0000000000	
        0.1547680709	      -39.5405288914	      655.9031786296	      -16.2810561750	        0.2371819833	        0.0000000000	        0.0420565370	       -0.0312455741	        0.0165616844	        0.0027421840	        0.0000000000	        0.0000000000	        0.0000000000	        0.0000000000	        0.0000000000	        0.0000000000	        0.0000000000	        0.0000000000	        0.0000000000	
        0.1658229332	      -32.5596214986	      633.3610048455	      -16.7183794787	        0.2416693178	        0.0000000000	        0.0421098472	       -0.0212870037	        0.0106100340	        0.0019229797	        0.0000000000	        0.0000000000	        0.0000000000	        0.0000000000	        0.0000000000	        0.0000000000	        0.0000000000	        0.0000000000	        0.0000000000	
        0.1768777954	      -26.5221308234	      614.6587258605	      -17.2285358650	        0.2462168636	        0.0000000000	        0.0421849671	       -0.0155069203	        0.0073340941	        0.0014284098	        0.0000000000	        0.0000000000	        0.0000000000	        0.0000000000	        0.0000000000	        0.0000000000	        0.0000000000	        0.0000000000	        0.0000000000	
        0.1879326576	      -21.5325963708	      600.4849802608	      -17.5134450452	        0.2510718196	        0.0000000000	        0.0422592895	       -0.0147918574	        0.0066886680	        0.0013763352	        0.0000000000	        0.0000000000	        0.0000000000	        0.0000000000	        0.0000000000	        0.0000000000	        0.0000000000	        0.0000000000	        0.0000000000	
        0.1989875198	      -17.9790685511	      590.8876307907	      -17.5753265109	        0.2562510306	        0.0000000000	        0.0423062349	       -0.0188683583	        0.0082061692	        0.0017595415	        0.0000000000	        0.0000000000	        0.0000000000	        0.0000000000	        0.0000000000	        0.0000000000	        0.0000000000	        0.0000000000	        0.0000000000	
        0.2100423820	      -15.3400608557	      585.0645876884	      -17.6141288471	        0.2616977963	        0.0000000000	        0.0423085724	       -0.0307253629	        0.0129155086	        0.0028475922	        0.0000000000	        0.0000000000	        0.0000000000	        0.0000000000	        0.0000000000	        0.0000000000	        0.0000000000	        0.0000000000	        0.0000000000	
        0.2210972442	      -14.0683042023	      582.3853735267	      -17.6830518407	        0.2673768708	        0.0000000000	        0.0422628928	       -0.0591604890	        0.0241414612	        0.0054277759	        0.0000000000	        0.0000000000	        0.0000000000	        0.0000000000	        0.0000000000	        0.0000000000	        0.0000000000	        0.0000000000	        0.0000000000	
        0.2321521064	      -13.4206498516	      581.6698820957	      -17.7066155755	        0.2731007505	        0.0000000000	        0.0421797422	       -0.1235414289	        0.0491408672	        0.0111904194	        0.0000000000	        0.0000000000	        0.0000000000	        0.0000000000	        0.0000000000	        0.0000000000	        0.0000000000	        0.0000000000	        0.0000000000	
